PathFileType	4	(X/Y/Z)	Patient4_TMGait_0pt5_01_left_07.trc.trc
DataRate	CameraRate	NumFrames	NumMarkers	Units	OrigDataRate	OrigDataStartFrame	OrigNumFrames
74.468085106383	74.468085106383	4	33	mm	74.468085106383	106	       141
Frame#	Time	L.ASIS			Sacral			L.Shoulder			Chest			R.Shoulder			Neck			R.ASIS			R.Thigh.Superior			R.Thigh.Lateral			R.Thigh.Inferior			R.Patella			L.Thigh.Superior			L.Thigh.Lateral			L.Thigh.Inferior			L.Patella			L.Shank.Superior			L.Shank.Lateral			L.Shank.Inferior			R.Shank.Superior			R.Shank.Lateral			R.Shank.Inferior			R.Heel			R.Midfoot.Superior			R.Midfoot.Lateral			R.Toe			L.Heel			L.Midfoot.Lateral			L.Midfoot.Superior			L.Toe			L.Elbow			L.Wrist			R.Elbow			R.Wrist			
		X1	Y1	Z1	X2	Y2	Z2	X3	Y3	Z3	X4	Y4	Z4	X5	Y5	Z5	X6	Y6	Z6	X7	Y7	Z7	X8	Y8	Z8	X9	Y9	Z9	X10	Y10	Z10	X11	Y11	Z11	X12	Y12	Z12	X13	Y13	Z13	X14	Y14	Z14	X15	Y15	Z15	X16	Y16	Z16	X17	Y17	Z17	X18	Y18	Z18	X19	Y19	Z19	X20	Y20	Z20	X21	Y21	Z21	X22	Y22	Z22	X23	Y23	Z23	X24	Y24	Z24	X25	Y25	Z25	X26	Y26	Z26	X27	Y27	Z27	X28	Y28	Z28	X29	Y29	Z29	X30	Y30	Z30	X31	Y31	Z31	X32	Y32	Z32	X33	Y33	Z33	

106	10.810000000000	710.775573656921	972.722051295196	359.080622745755	516.030652808422	1013.983133447960	539.971321429616	681.575251902217	1455.220079791058	374.946692135395	800.001177802607	1365.750345978463	514.612324880801	741.941075253341	1426.771509495611	703.733763324412	707.386211137704	1501.522326827065	527.979568789330	753.473708969307	945.744441987613	629.598272152164	780.412406602169	742.775777881688	597.055808812033	699.096102000634	636.445421951124	660.847373292830	769.407970310037	582.030312924465	576.714839850749	764.975923962844	492.351981726221	582.328584195785	791.302612573781	787.764197986763	372.005617937032	735.603256492833	661.079150058367	299.563712088464	843.601206036995	598.879625400927	347.168708445223	862.384248129305	518.471563970045	337.533393050438	819.909924163389	444.203288515228	334.984724672720	702.302131385226	351.084452736214	297.371870170442	747.716988570437	226.776412616721	348.228148477246	732.029636719717	405.733249422298	586.964706601535	655.266173001135	304.802257945665	645.916783178803	691.198142347872	209.661904420423	579.670936902978	545.020746876161	49.722180769732	548.582013359120	721.438858046465	98.596787163702	576.700136422037	632.726594191823	37.687694578071	616.936046591622	839.977569271448	38.399036739320	593.434463874436	603.244008643338	88.032818760943	399.906322981118	665.900469528992	73.916001945062	312.273674853693	759.637579986836	124.185293755937	325.138682707377	873.027263408240	56.305242517314	284.307917710216	568.768894102773	1130.491305810119	235.599062170495	683.316604585981	893.966905536626	215.964779470902	799.711731334269	1083.671511839234	807.547336198271	1032.740520322842	985.130592119154	762.555646546976	
107	10.823428571429	709.204740043547	972.812428012815	358.552862557479	514.822939953902	1013.749478451733	539.969497294440	680.343231655302	1455.602886469464	376.018980993032	799.011101977243	1365.341654033324	514.981224712556	741.490809080941	1425.516352228869	704.532473362718	706.536988794487	1501.189357821270	529.293513924307	752.192540327640	945.373212189202	629.093122447391	778.470648925386	742.270519676061	596.663608398120	696.634148848143	636.056380275997	660.548431825031	766.791814466448	581.361222563467	576.621447485414	761.762330059098	491.567896875111	582.201078665823	788.745544669858	787.196809486801	371.552593111632	732.803121954176	660.645931222344	298.880575827476	840.117488623202	598.255489282558	347.580478313046	860.117102253001	520.035579030117	337.878165942896	821.774900197662	445.732383078815	334.188982730455	710.683340105646	345.820984218178	294.860625928744	763.764317702361	224.014165331301	344.968437384064	728.113929865975	405.073198359069	586.739314923624	650.542782871238	304.746195581190	645.745016936574	685.650083385341	209.312250172365	579.497490849542	538.348671054928	49.978142284618	548.529623340244	714.829335971139	98.584485691547	576.727055238650	625.992798562998	37.777693502271	616.894879897599	833.246935694485	38.250013728187	593.503073540678	628.324388588407	75.770604169553	394.434366774133	692.385669162497	66.469432213875	307.125533095749	782.653151439279	122.408435986353	321.094989112203	900.417882580455	62.043565344137	280.579252091652	565.114381426437	1132.341312751889	235.428909951561	677.971734281781	895.062072241578	214.841652675092	803.124623292643	1082.559976627518	806.005725048735	1036.830349051159	986.712956443718	758.687795965469	
108	10.836857142857	707.731695624731	972.782739195155	357.925152793600	513.651152490252	1013.410390377373	539.740666784924	679.201855602223	1455.835432383875	376.848231685966	797.989336086307	1364.863183380367	515.247796934660	740.810797151946	1424.240998505756	705.146669092941	705.643418193764	1500.770556770621	530.358877673073	750.856616100338	944.866702631590	628.519134102508	776.525146852404	741.612442072745	596.268034566359	694.037091959675	635.551467868043	660.065515730569	764.054184262149	580.570137893813	576.356982289073	758.412504744439	490.687698624725	581.815597906079	786.028161241382	786.256157776314	371.051407659420	729.660719192541	659.963131529508	298.143041768772	836.257118826514	597.248377578411	348.021238245587	857.401088373796	521.278916461861	338.428188515977	823.143670545721	447.275416094200	333.549196836520	718.992261562044	341.096622233508	292.288325955101	779.338788985594	222.277481150867	341.870385415608	724.109152571899	404.318171803935	586.283985925862	645.804985657210	304.581449564632	645.406450040393	680.045814443092	208.861226159869	579.146914735927	531.648272553521	50.088471190705	548.419302620612	708.150878465011	98.531264272928	576.661763301791	619.231900109485	37.834302461012	616.810345956259	826.498241749819	38.126657361055	593.568185890237	653.184260378118	65.464162473577	388.860385534764	718.633642394735	60.737713510340	302.128819380244	805.173189923831	121.917948539127	317.387297534195	926.829093401706	68.884874296343	277.739919935576	561.684499975963	1134.029639332832	235.004644106156	672.716817954351	895.941265896505	213.684064624124	805.971660546676	1081.398710274124	804.307355818846	1040.170283541922	987.751605229995	754.927370927753	
109	10.850285714286	706.334962470464	972.662327745760	357.203660897057	512.497358288810	1013.003713936492	539.301301757302	678.147184791768	1455.923329436985	377.413859043590	796.947172646678	1364.335965327302	515.391296024278	739.936701481896	1422.996212633476	705.556738940939	704.717339399246	1500.289879586373	531.144463049091	749.478020596148	944.239498351677	627.874497861778	774.509876428744	740.813354091327	595.796200055167	691.280157834462	634.954294106249	659.389356324722	761.119369778223	579.672391539991	575.876347922552	754.855072920364	489.729719111734	581.154751548061	783.234535331102	785.073192050714	370.468858497549	726.296308138148	659.122144652189	297.342574552333	832.221162619296	596.010175942821	348.374628407282	854.429634551355	522.297591225090	339.082407937551	824.124605291121	448.878258774859	333.021538959917	727.144875455774	337.045484176868	289.723936392758	794.253436325112	221.593809262949	339.000731131970	719.959102340534	403.489158081041	585.596579590207	641.010656799782	304.321744671716	644.911814724466	674.357062226298	208.326803263296	578.626993422049	524.916817704890	50.050346426690	548.259643224039	701.400716958210	98.440027894843	576.507319370131	612.446190457458	37.856005030760	616.686960928899	819.733360185556	38.032859466366	593.628476696080	677.384720061131	57.248538408692	383.407525018497	744.205422656898	56.735500715962	297.471334011550	826.896678059850	122.656233620419	314.106591898720	951.947885516000	76.600837758258	275.837685307441	558.489958893513	1135.518625671934	234.380380807061	667.528828946079	896.552638072462	212.463308851180	808.207602710777	1080.220575027466	802.484283912404	1042.724631012939	988.256642818769	751.315529616457	
